<svg width="2000" height="1800" viewBox="0 0 2000 1800" fill="none" xmlns="http://www.w3.org/2000/svg">
<rect width="1000" height="600" fill="#27AE60"/>
<rect y="600" width="1000" height="600" fill="#1A7641"/>
<rect y="1200" width="1000" height="600" fill="#2F80ED"/>
<path d="M718.273 562L725.909 515.455H730.455L722.818 562H718.273ZM697.091 549.091L697.818 544.545H732.545L731.818 549.091H697.091ZM701.909 562L709.545 515.455H714.091L706.455 562H701.909ZM699.818 532.909L700.545 528.364H735.273L734.545 532.909H699.818ZM741.193 562V557.909L756.557 541.091C758.36 539.121 759.845 537.409 761.011 535.955C762.178 534.485 763.042 533.106 763.602 531.818C764.178 530.515 764.466 529.152 764.466 527.727C764.466 526.091 764.072 524.674 763.284 523.477C762.511 522.28 761.451 521.356 760.102 520.705C758.754 520.053 757.239 519.727 755.557 519.727C753.769 519.727 752.208 520.098 750.875 520.841C749.557 521.568 748.534 522.591 747.807 523.909C747.095 525.227 746.739 526.773 746.739 528.545H741.375C741.375 525.818 742.004 523.424 743.261 521.364C744.519 519.303 746.231 517.697 748.398 516.545C750.58 515.394 753.027 514.818 755.739 514.818C758.466 514.818 760.883 515.394 762.989 516.545C765.095 517.697 766.746 519.25 767.943 521.205C769.14 523.159 769.739 525.333 769.739 527.727C769.739 529.439 769.428 531.114 768.807 532.75C768.201 534.371 767.14 536.182 765.625 538.182C764.125 540.167 762.042 542.591 759.375 545.455L748.92 556.636V557H770.557V562H741.193ZM781.398 562L802.216 520.818V520.455H778.216V515.455H808.034V520.727L787.307 562H781.398ZM812.295 562H806.386L823.477 515.455H829.295L846.386 562H840.477L826.568 522.818H826.205L812.295 562ZM814.477 543.818H838.295V548.818H814.477V543.818ZM853.636 562V515.455H881.727V520.455H859.273V536.182H880.273V541.182H859.273V557H882.091V562H853.636ZM906.523 562.636C904.614 562.606 902.705 562.242 900.795 561.545C898.886 560.848 897.144 559.674 895.568 558.023C893.992 556.356 892.727 554.106 891.773 551.273C890.818 548.424 890.341 544.848 890.341 540.545C890.341 536.424 890.727 532.773 891.5 529.591C892.273 526.394 893.394 523.705 894.864 521.523C896.333 519.326 898.106 517.659 900.182 516.523C902.273 515.386 904.629 514.818 907.25 514.818C909.856 514.818 912.174 515.341 914.205 516.386C916.25 517.417 917.917 518.856 919.205 520.705C920.492 522.553 921.326 524.682 921.705 527.091H916.159C915.644 525 914.644 523.265 913.159 521.886C911.674 520.508 909.705 519.818 907.25 519.818C903.644 519.818 900.803 521.386 898.727 524.523C896.667 527.659 895.629 532.061 895.614 537.727H895.977C896.826 536.439 897.833 535.341 899 534.432C900.182 533.508 901.485 532.795 902.909 532.295C904.333 531.795 905.841 531.545 907.432 531.545C910.098 531.545 912.538 532.212 914.75 533.545C916.962 534.864 918.735 536.689 920.068 539.023C921.402 541.341 922.068 544 922.068 547C922.068 549.879 921.424 552.515 920.136 554.909C918.848 557.288 917.038 559.182 914.705 560.591C912.386 561.985 909.659 562.667 906.523 562.636ZM906.523 557.636C908.432 557.636 910.144 557.159 911.659 556.205C913.189 555.25 914.394 553.97 915.273 552.364C916.167 550.758 916.614 548.97 916.614 547C916.614 545.076 916.182 543.326 915.318 541.75C914.47 540.159 913.295 538.894 911.795 537.955C910.311 537.015 908.614 536.545 906.705 536.545C905.265 536.545 903.924 536.833 902.682 537.409C901.439 537.97 900.348 538.742 899.409 539.727C898.485 540.712 897.758 541.841 897.227 543.114C896.697 544.371 896.432 545.697 896.432 547.091C896.432 548.939 896.864 550.667 897.727 552.273C898.606 553.879 899.803 555.174 901.318 556.159C902.848 557.144 904.583 557.636 906.523 557.636ZM946.188 562.636C942.763 562.636 939.847 561.705 937.438 559.841C935.028 557.962 933.188 555.242 931.915 551.682C930.642 548.106 930.006 543.788 930.006 538.727C930.006 533.697 930.642 529.402 931.915 525.841C933.203 522.265 935.051 519.538 937.46 517.659C939.884 515.765 942.794 514.818 946.188 514.818C949.581 514.818 952.483 515.765 954.892 517.659C957.316 519.538 959.165 522.265 960.438 525.841C961.725 529.402 962.369 533.697 962.369 538.727C962.369 543.788 961.733 548.106 960.46 551.682C959.188 555.242 957.347 557.962 954.938 559.841C952.528 561.705 949.612 562.636 946.188 562.636ZM946.188 557.636C949.581 557.636 952.218 556 954.097 552.727C955.975 549.455 956.915 544.788 956.915 538.727C956.915 534.697 956.483 531.265 955.619 528.432C954.771 525.598 953.544 523.439 951.938 521.955C950.347 520.47 948.43 519.727 946.188 519.727C942.824 519.727 940.195 521.386 938.301 524.705C936.407 528.008 935.46 532.682 935.46 538.727C935.46 542.758 935.884 546.182 936.733 549C937.581 551.818 938.801 553.962 940.392 555.432C941.998 556.902 943.93 557.636 946.188 557.636Z" fill="white"/>
<path d="M718.273 1168L725.909 1121.45H730.455L722.818 1168H718.273ZM697.091 1155.09L697.818 1150.55H732.545L731.818 1155.09H697.091ZM701.909 1168L709.545 1121.45H714.091L706.455 1168H701.909ZM699.818 1138.91L700.545 1134.36H735.273L734.545 1138.91H699.818ZM757.557 1121.45V1168H751.92V1127.36H751.648L740.284 1134.91V1129.18L751.92 1121.45H757.557ZM773.67 1168H767.761L784.852 1121.45H790.67L807.761 1168H801.852L787.943 1128.82H787.58L773.67 1168ZM775.852 1149.82H799.67V1154.82H775.852V1149.82ZM815.648 1168L836.466 1126.82V1126.45H812.466V1121.45H842.284V1126.73L821.557 1168H815.648ZM865.21 1168.64C863.301 1168.61 861.392 1168.24 859.483 1167.55C857.574 1166.85 855.831 1165.67 854.256 1164.02C852.68 1162.36 851.415 1160.11 850.46 1157.27C849.506 1154.42 849.028 1150.85 849.028 1146.55C849.028 1142.42 849.415 1138.77 850.188 1135.59C850.96 1132.39 852.081 1129.7 853.551 1127.52C855.021 1125.33 856.794 1123.66 858.869 1122.52C860.96 1121.39 863.316 1120.82 865.938 1120.82C868.544 1120.82 870.862 1121.34 872.892 1122.39C874.938 1123.42 876.604 1124.86 877.892 1126.7C879.18 1128.55 880.013 1130.68 880.392 1133.09H874.847C874.331 1131 873.331 1129.27 871.847 1127.89C870.362 1126.51 868.392 1125.82 865.938 1125.82C862.331 1125.82 859.491 1127.39 857.415 1130.52C855.354 1133.66 854.316 1138.06 854.301 1143.73H854.665C855.513 1142.44 856.521 1141.34 857.688 1140.43C858.869 1139.51 860.172 1138.8 861.597 1138.3C863.021 1137.8 864.528 1137.55 866.119 1137.55C868.786 1137.55 871.225 1138.21 873.438 1139.55C875.65 1140.86 877.422 1142.69 878.756 1145.02C880.089 1147.34 880.756 1150 880.756 1153C880.756 1155.88 880.112 1158.52 878.824 1160.91C877.536 1163.29 875.725 1165.18 873.392 1166.59C871.074 1167.98 868.347 1168.67 865.21 1168.64ZM865.21 1163.64C867.119 1163.64 868.831 1163.16 870.347 1162.2C871.877 1161.25 873.081 1159.97 873.96 1158.36C874.854 1156.76 875.301 1154.97 875.301 1153C875.301 1151.08 874.869 1149.33 874.006 1147.75C873.157 1146.16 871.983 1144.89 870.483 1143.95C868.998 1143.02 867.301 1142.55 865.392 1142.55C863.953 1142.55 862.612 1142.83 861.369 1143.41C860.127 1143.97 859.036 1144.74 858.097 1145.73C857.172 1146.71 856.445 1147.84 855.915 1149.11C855.384 1150.37 855.119 1151.7 855.119 1153.09C855.119 1154.94 855.551 1156.67 856.415 1158.27C857.294 1159.88 858.491 1161.17 860.006 1162.16C861.536 1163.14 863.271 1163.64 865.21 1163.64ZM888.602 1158.45V1153.82L909.057 1121.45H912.42V1128.64H910.148L894.693 1153.09V1153.45H922.239V1158.45H888.602ZM910.511 1168V1157.05V1154.89V1121.45H915.875V1168H910.511ZM946.494 1121.45V1168H940.858V1127.36H940.585L929.222 1134.91V1129.18L940.858 1121.45H946.494Z" fill="white"/>
<path d="M718.273 1768L725.909 1721.45H730.455L722.818 1768H718.273ZM697.091 1755.09L697.818 1750.55H732.545L731.818 1755.09H697.091ZM701.909 1768L709.545 1721.45H714.091L706.455 1768H701.909ZM699.818 1738.91L700.545 1734.36H735.273L734.545 1738.91H699.818ZM741.193 1768V1763.91L756.557 1747.09C758.36 1745.12 759.845 1743.41 761.011 1741.95C762.178 1740.48 763.042 1739.11 763.602 1737.82C764.178 1736.52 764.466 1735.15 764.466 1733.73C764.466 1732.09 764.072 1730.67 763.284 1729.48C762.511 1728.28 761.451 1727.36 760.102 1726.7C758.754 1726.05 757.239 1725.73 755.557 1725.73C753.769 1725.73 752.208 1726.1 750.875 1726.84C749.557 1727.57 748.534 1728.59 747.807 1729.91C747.095 1731.23 746.739 1732.77 746.739 1734.55H741.375C741.375 1731.82 742.004 1729.42 743.261 1727.36C744.519 1725.3 746.231 1723.7 748.398 1722.55C750.58 1721.39 753.027 1720.82 755.739 1720.82C758.466 1720.82 760.883 1721.39 762.989 1722.55C765.095 1723.7 766.746 1725.25 767.943 1727.2C769.14 1729.16 769.739 1731.33 769.739 1733.73C769.739 1735.44 769.428 1737.11 768.807 1738.75C768.201 1740.37 767.14 1742.18 765.625 1744.18C764.125 1746.17 762.042 1748.59 759.375 1751.45L748.92 1762.64V1763H770.557V1768H741.193ZM780.761 1768V1721.45H808.67V1726.45H786.398V1742.18H806.58V1747.18H786.398V1768H780.761ZM832.415 1768.64C829.294 1768.64 826.536 1768.08 824.142 1766.98C821.763 1765.86 819.907 1764.32 818.574 1762.36C817.241 1760.39 816.581 1758.15 816.597 1755.64C816.581 1753.67 816.968 1751.85 817.756 1750.18C818.544 1748.5 819.619 1747.1 820.983 1745.98C822.362 1744.84 823.9 1744.12 825.597 1743.82V1743.55C823.369 1742.97 821.597 1741.72 820.278 1739.8C818.96 1737.86 818.309 1735.65 818.324 1733.18C818.309 1730.82 818.907 1728.7 820.119 1726.84C821.331 1724.98 822.998 1723.51 825.119 1722.43C827.256 1721.36 829.688 1720.82 832.415 1720.82C835.112 1720.82 837.521 1721.36 839.642 1722.43C841.763 1723.51 843.43 1724.98 844.642 1726.84C845.869 1728.7 846.491 1730.82 846.506 1733.18C846.491 1735.65 845.816 1737.86 844.483 1739.8C843.165 1741.72 841.415 1742.97 839.233 1743.55V1743.82C840.915 1744.12 842.43 1744.84 843.778 1745.98C845.127 1747.1 846.203 1748.5 847.006 1750.18C847.809 1751.85 848.218 1753.67 848.233 1755.64C848.218 1758.15 847.536 1760.39 846.188 1762.36C844.854 1764.32 842.998 1765.86 840.619 1766.98C838.256 1768.08 835.521 1768.64 832.415 1768.64ZM832.415 1763.64C834.521 1763.64 836.339 1763.3 837.869 1762.61C839.4 1761.93 840.581 1760.97 841.415 1759.73C842.248 1758.48 842.672 1757.03 842.688 1755.36C842.672 1753.61 842.218 1752.05 841.324 1750.7C840.43 1749.36 839.21 1748.3 837.665 1747.52C836.134 1746.75 834.384 1746.36 832.415 1746.36C830.43 1746.36 828.657 1746.75 827.097 1747.52C825.551 1748.3 824.331 1749.36 823.438 1750.7C822.559 1752.05 822.127 1753.61 822.142 1755.36C822.127 1757.03 822.528 1758.48 823.347 1759.73C824.18 1760.97 825.369 1761.93 826.915 1762.61C828.46 1763.3 830.294 1763.64 832.415 1763.64ZM832.415 1741.55C834.081 1741.55 835.559 1741.21 836.847 1740.55C838.15 1739.88 839.172 1738.95 839.915 1737.75C840.657 1736.55 841.036 1735.15 841.051 1733.55C841.036 1731.97 840.665 1730.6 839.938 1729.43C839.21 1728.25 838.203 1727.34 836.915 1726.7C835.627 1726.05 834.127 1725.73 832.415 1725.73C830.672 1725.73 829.15 1726.05 827.847 1726.7C826.544 1727.34 825.536 1728.25 824.824 1729.43C824.112 1730.6 823.763 1731.97 823.778 1733.55C823.763 1735.15 824.119 1736.55 824.847 1737.75C825.589 1738.95 826.612 1739.88 827.915 1740.55C829.218 1741.21 830.718 1741.55 832.415 1741.55ZM872.125 1768.64C868.701 1768.64 865.784 1767.7 863.375 1765.84C860.966 1763.96 859.125 1761.24 857.852 1757.68C856.58 1754.11 855.943 1749.79 855.943 1744.73C855.943 1739.7 856.58 1735.4 857.852 1731.84C859.14 1728.27 860.989 1725.54 863.398 1723.66C865.822 1721.77 868.731 1720.82 872.125 1720.82C875.519 1720.82 878.42 1721.77 880.83 1723.66C883.254 1725.54 885.102 1728.27 886.375 1731.84C887.663 1735.4 888.307 1739.7 888.307 1744.73C888.307 1749.79 887.67 1754.11 886.398 1757.68C885.125 1761.24 883.284 1763.96 880.875 1765.84C878.466 1767.7 875.549 1768.64 872.125 1768.64ZM872.125 1763.64C875.519 1763.64 878.155 1762 880.034 1758.73C881.913 1755.45 882.852 1750.79 882.852 1744.73C882.852 1740.7 882.42 1737.27 881.557 1734.43C880.708 1731.6 879.481 1729.44 877.875 1727.95C876.284 1726.47 874.367 1725.73 872.125 1725.73C868.761 1725.73 866.133 1727.39 864.239 1730.7C862.345 1734.01 861.398 1738.68 861.398 1744.73C861.398 1748.76 861.822 1752.18 862.67 1755C863.519 1757.82 864.739 1759.96 866.33 1761.43C867.936 1762.9 869.867 1763.64 872.125 1763.64ZM897.761 1768V1721.45H925.852V1726.45H903.398V1742.18H924.398V1747.18H903.398V1763H926.216V1768H897.761ZM950.375 1768H936.011V1721.45H951.011C955.527 1721.45 959.39 1722.39 962.602 1724.25C965.814 1726.1 968.277 1728.76 969.989 1732.23C971.701 1735.68 972.557 1739.82 972.557 1744.64C972.557 1749.48 971.693 1753.66 969.966 1757.16C968.239 1760.64 965.723 1763.33 962.42 1765.2C959.117 1767.07 955.102 1768 950.375 1768ZM941.648 1763H950.011C953.86 1763 957.049 1762.26 959.58 1760.77C962.11 1759.29 963.996 1757.17 965.239 1754.43C966.481 1751.69 967.102 1748.42 967.102 1744.64C967.102 1740.88 966.489 1737.64 965.261 1734.93C964.034 1732.2 962.201 1730.11 959.761 1728.66C957.322 1727.19 954.284 1726.45 950.648 1726.45H941.648V1763Z" fill="white"/>
<rect x="1000" width="1000" height="1800" fill="black"/>
<path d="M1497.91 372.356L1672.29 543.305L1328.94 540.898L1497.91 372.356Z" fill="#2F80ED"/>
<path d="M1497.95 373.393L1328.94 199V540.967L1497.95 373.393Z" fill="#1A7641"/>
<path d="M1497.47 373.32L1670.36 199H1328.43L1497.47 373.32Z" fill="#27AE60"/>
<path d="M1841.05 1768V1721.45H1850.89V1741.98H1851.5L1868.25 1721.45H1880.05L1862.77 1742.3L1880.25 1768H1868.48L1855.73 1748.86L1850.89 1754.77V1768H1841.05ZM1901.67 1768H1885.17V1721.45H1901.81C1906.49 1721.45 1910.52 1722.39 1913.9 1724.25C1917.28 1726.1 1919.88 1728.76 1921.69 1732.23C1923.53 1735.7 1924.44 1739.85 1924.44 1744.68C1924.44 1749.53 1923.53 1753.7 1921.69 1757.18C1919.88 1760.67 1917.26 1763.34 1913.85 1765.2C1910.46 1767.07 1906.4 1768 1901.67 1768ZM1895.01 1759.57H1901.26C1904.17 1759.57 1906.62 1759.05 1908.6 1758.02C1910.6 1756.98 1912.1 1755.36 1913.1 1753.18C1914.12 1750.98 1914.62 1748.15 1914.62 1744.68C1914.62 1741.24 1914.12 1738.43 1913.1 1736.25C1912.1 1734.07 1910.61 1732.46 1908.62 1731.43C1906.64 1730.4 1904.19 1729.89 1901.28 1729.89H1895.01V1759.57ZM1956.98 1734.84C1956.8 1733.01 1956.02 1731.58 1954.64 1730.57C1953.26 1729.55 1951.39 1729.05 1949.03 1729.05C1947.42 1729.05 1946.07 1729.27 1944.96 1729.73C1943.85 1730.17 1943.01 1730.78 1942.41 1731.57C1941.84 1732.36 1941.55 1733.25 1941.55 1734.25C1941.52 1735.08 1941.7 1735.81 1942.07 1736.43C1942.47 1737.05 1943.01 1737.59 1943.69 1738.05C1944.37 1738.48 1945.16 1738.87 1946.05 1739.2C1946.95 1739.52 1947.9 1739.8 1948.91 1740.02L1953.1 1741.02C1955.13 1741.48 1956.99 1742.08 1958.69 1742.84C1960.38 1743.6 1961.85 1744.53 1963.1 1745.64C1964.34 1746.74 1965.3 1748.05 1965.98 1749.55C1966.68 1751.05 1967.04 1752.77 1967.05 1754.7C1967.04 1757.55 1966.31 1760.02 1964.87 1762.11C1963.45 1764.19 1961.38 1765.8 1958.69 1766.95C1956.01 1768.09 1952.77 1768.66 1948.98 1768.66C1945.23 1768.66 1941.95 1768.08 1939.16 1766.93C1936.39 1765.78 1934.23 1764.08 1932.66 1761.82C1931.12 1759.55 1930.31 1756.73 1930.23 1753.39H1939.76C1939.86 1754.95 1940.31 1756.25 1941.1 1757.3C1941.9 1758.33 1942.97 1759.11 1944.3 1759.64C1945.65 1760.15 1947.17 1760.41 1948.87 1760.41C1950.54 1760.41 1951.98 1760.17 1953.21 1759.68C1954.45 1759.2 1955.41 1758.52 1956.1 1757.66C1956.78 1756.8 1957.12 1755.8 1957.12 1754.68C1957.12 1753.64 1956.81 1752.76 1956.19 1752.05C1955.58 1751.33 1954.69 1750.73 1953.51 1750.23C1952.34 1749.73 1950.91 1749.27 1949.21 1748.86L1944.14 1747.59C1940.22 1746.64 1937.12 1745.14 1934.85 1743.11C1932.57 1741.08 1931.45 1738.35 1931.46 1734.91C1931.45 1732.09 1932.2 1729.63 1933.71 1727.52C1935.24 1725.42 1937.34 1723.77 1940.01 1722.59C1942.67 1721.41 1945.7 1720.82 1949.1 1720.82C1952.55 1720.82 1955.57 1721.41 1958.14 1722.59C1960.73 1723.77 1962.75 1725.42 1964.19 1727.52C1965.63 1729.63 1966.37 1732.07 1966.41 1734.84H1956.98Z" fill="white"/>
<path d="M1328 885V543H1400.54V693.794H1405.07L1528.54 543H1615.49L1488.16 696.132L1617 885H1530.22L1436.23 744.393L1400.54 787.811V885H1328Z" fill="white"/>
<path d="M1449.42 1227H1328V885H1450.42C1484.88 885 1514.53 891.847 1539.4 905.54C1564.26 919.122 1583.38 938.66 1596.76 964.154C1610.25 989.648 1617 1020.15 1617 1055.67C1617 1091.29 1610.25 1121.91 1596.76 1147.51C1583.38 1173.12 1564.15 1192.77 1539.06 1206.46C1514.09 1220.15 1484.21 1227 1449.42 1227ZM1400.42 1165.05H1446.41C1467.82 1165.05 1485.82 1161.26 1500.43 1153.69C1515.15 1146.01 1526.19 1134.15 1533.54 1118.12C1541.01 1101.98 1544.75 1081.16 1544.75 1055.67C1544.75 1030.39 1541.01 1009.74 1533.54 993.712C1526.19 977.681 1515.2 965.88 1500.6 958.31C1485.99 950.739 1467.98 946.954 1446.58 946.954H1400.42V1165.05Z" fill="white"/>
<path d="M1538.24 1336.62C1536.82 1322.29 1530.72 1311.16 1519.93 1303.22C1509.15 1295.29 1494.51 1291.32 1476.02 1291.32C1463.46 1291.32 1452.85 1293.09 1444.2 1296.65C1435.55 1300.08 1428.91 1304.88 1424.29 1311.04C1419.79 1317.2 1417.53 1324.19 1417.53 1332C1417.3 1338.52 1418.66 1344.2 1421.62 1349.06C1424.7 1353.92 1428.91 1358.12 1434.24 1361.68C1439.58 1365.11 1445.74 1368.13 1452.73 1370.74C1459.73 1373.22 1467.19 1375.36 1475.13 1377.13L1507.84 1384.95C1523.73 1388.5 1538.3 1393.24 1551.58 1399.16C1564.85 1405.09 1576.35 1412.37 1586.07 1421.02C1595.79 1429.66 1603.31 1439.85 1608.64 1451.58C1614.1 1463.3 1616.88 1476.75 1617 1491.91C1616.88 1514.18 1611.19 1533.48 1599.93 1549.83C1588.79 1566.06 1572.67 1578.67 1551.58 1587.67C1530.6 1596.56 1505.3 1601 1475.67 1601C1446.27 1601 1420.67 1596.5 1398.87 1587.5C1377.18 1578.49 1360.23 1565.17 1348.02 1547.52C1335.93 1529.75 1329.59 1507.78 1329 1481.6H1403.49C1404.32 1493.8 1407.81 1503.99 1413.98 1512.16C1420.26 1520.22 1428.61 1526.32 1439.04 1530.46C1449.59 1534.49 1461.5 1536.5 1474.78 1536.5C1487.81 1536.5 1499.13 1534.61 1508.73 1530.82C1518.45 1527.03 1525.98 1521.76 1531.31 1515.01C1536.64 1508.26 1539.31 1500.5 1539.31 1491.73C1539.31 1483.56 1536.88 1476.69 1532.02 1471.12C1527.28 1465.55 1520.29 1460.82 1511.04 1456.91C1501.92 1453 1490.72 1449.45 1477.44 1446.25L1437.8 1436.3C1407.1 1428.84 1382.87 1417.17 1365.09 1401.3C1347.31 1385.42 1338.48 1364.04 1338.6 1337.16C1338.48 1315.13 1344.35 1295.88 1356.2 1279.41C1368.17 1262.95 1384.59 1250.1 1405.44 1240.86C1426.3 1231.62 1450.01 1227 1476.56 1227C1503.58 1227 1527.16 1231.62 1547.31 1240.86C1567.58 1250.1 1583.34 1262.95 1594.6 1279.41C1605.86 1295.88 1611.67 1314.95 1612.02 1336.62H1538.24Z" fill="white"/>
<g opacity="0.5">
<path d="M1497.48 714.356L1671.85 885.305L1328.51 882.898L1497.48 714.356Z" fill="#2F80ED"/>
<path d="M1497.52 715.393L1328.51 541V882.967L1497.52 715.393Z" fill="#1A7641"/>
<path d="M1497.03 715.32L1669.93 541H1328L1497.03 715.32Z" fill="#27AE60"/>
</g>
<g opacity="0.5">
<path d="M1498.48 1056.36L1672.85 1227.31L1329.51 1224.9L1498.48 1056.36Z" fill="#2F80ED"/>
<path d="M1498.52 1057.39L1329.51 883V1224.97L1498.52 1057.39Z" fill="#1A7641"/>
<path d="M1498.03 1057.32L1670.93 883H1329L1498.03 1057.32Z" fill="#27AE60"/>
</g>
<g opacity="0.5">
<path d="M1498.48 1400.36L1672.85 1571.31L1329.51 1568.9L1498.48 1400.36Z" fill="#2F80ED"/>
<path d="M1498.52 1401.39L1329.51 1227V1568.97L1498.52 1401.39Z" fill="#1A7641"/>
<path d="M1498.03 1401.32L1670.93 1227H1329L1498.03 1401.32Z" fill="#27AE60"/>
</g>
<path d="M1044.49 1756.32C1042.79 1756.32 1041.28 1756.03 1039.95 1755.44C1038.64 1754.85 1037.59 1754.04 1036.83 1753.01C1036.07 1751.97 1035.68 1750.78 1035.66 1749.42H1040.61C1040.64 1749.99 1040.83 1750.49 1041.17 1750.92C1041.52 1751.34 1041.98 1751.67 1042.56 1751.91C1043.13 1752.14 1043.78 1752.26 1044.5 1752.26C1045.25 1752.26 1045.91 1752.13 1046.49 1751.86C1047.06 1751.6 1047.52 1751.23 1047.84 1750.76C1048.17 1750.29 1048.33 1749.75 1048.33 1749.14C1048.33 1748.52 1048.16 1747.97 1047.81 1747.49C1047.47 1747 1046.97 1746.62 1046.33 1746.35C1045.69 1746.08 1044.94 1745.94 1044.06 1745.94H1041.89V1742.33H1044.06C1044.8 1742.33 1045.45 1742.2 1046.02 1741.94C1046.6 1741.69 1047.05 1741.33 1047.36 1740.88C1047.68 1740.41 1047.84 1739.88 1047.84 1739.26C1047.84 1738.68 1047.7 1738.17 1047.42 1737.73C1047.15 1737.28 1046.76 1736.93 1046.26 1736.68C1045.77 1736.43 1045.19 1736.31 1044.53 1736.31C1043.87 1736.31 1043.26 1736.43 1042.7 1736.67C1042.15 1736.91 1041.71 1737.24 1041.38 1737.68C1041.04 1738.12 1040.86 1738.64 1040.84 1739.23H1036.12C1036.15 1737.89 1036.53 1736.7 1037.27 1735.68C1038.02 1734.66 1039.02 1733.86 1040.27 1733.28C1041.54 1732.7 1042.97 1732.41 1044.56 1732.41C1046.16 1732.41 1047.57 1732.7 1048.77 1733.28C1049.98 1733.87 1050.91 1734.66 1051.58 1735.65C1052.25 1736.63 1052.59 1737.74 1052.58 1738.97C1052.59 1740.27 1052.18 1741.36 1051.36 1742.23C1050.55 1743.1 1049.5 1743.65 1048.19 1743.89V1744.07C1049.91 1744.29 1051.21 1744.88 1052.1 1745.85C1053 1746.81 1053.45 1748.02 1053.44 1749.47C1053.45 1750.79 1053.07 1751.97 1052.3 1753C1051.53 1754.03 1050.47 1754.84 1049.12 1755.43C1047.78 1756.02 1046.23 1756.32 1044.49 1756.32ZM1064.52 1756V1732.73H1069.44V1751.94H1079.42V1756H1064.52ZM1090.54 1756.34C1088.75 1756.34 1087.2 1755.98 1085.91 1755.25C1084.62 1754.52 1083.63 1753.48 1082.93 1752.14C1082.23 1750.79 1081.88 1749.19 1081.88 1747.35C1081.88 1745.56 1082.23 1743.98 1082.93 1742.62C1083.63 1741.27 1084.61 1740.21 1085.87 1739.45C1087.14 1738.7 1088.64 1738.32 1090.35 1738.32C1091.5 1738.32 1092.57 1738.5 1093.57 1738.88C1094.57 1739.24 1095.44 1739.79 1096.18 1740.52C1096.93 1741.26 1097.51 1742.18 1097.93 1743.3C1098.35 1744.4 1098.55 1745.7 1098.55 1747.18V1748.51H1083.82V1745.51H1094C1094 1744.81 1093.85 1744.2 1093.54 1743.66C1093.24 1743.12 1092.82 1742.7 1092.28 1742.4C1091.75 1742.09 1091.13 1741.93 1090.43 1741.93C1089.69 1741.93 1089.04 1742.1 1088.47 1742.44C1087.91 1742.78 1087.47 1743.23 1087.16 1743.8C1086.84 1744.36 1086.68 1744.98 1086.67 1745.67V1748.52C1086.67 1749.39 1086.83 1750.13 1087.14 1750.76C1087.47 1751.39 1087.93 1751.88 1088.52 1752.22C1089.11 1752.56 1089.81 1752.73 1090.62 1752.73C1091.16 1752.73 1091.65 1752.65 1092.1 1752.5C1092.55 1752.35 1092.93 1752.12 1093.25 1751.82C1093.57 1751.52 1093.81 1751.14 1093.97 1750.7L1098.45 1751C1098.22 1752.08 1097.76 1753.02 1097.05 1753.82C1096.36 1754.61 1095.46 1755.23 1094.35 1755.68C1093.25 1756.12 1091.98 1756.34 1090.54 1756.34ZM1111 1738.55V1742.18H1100.49V1738.55H1111ZM1102.87 1734.36H1107.71V1750.64C1107.71 1751.08 1107.78 1751.43 1107.92 1751.68C1108.05 1751.92 1108.24 1752.09 1108.49 1752.19C1108.74 1752.29 1109.02 1752.34 1109.35 1752.34C1109.58 1752.34 1109.8 1752.32 1110.03 1752.28C1110.26 1752.24 1110.43 1752.2 1110.55 1752.18L1111.32 1755.78C1111.07 1755.86 1110.73 1755.95 1110.29 1756.05C1109.85 1756.15 1109.32 1756.22 1108.69 1756.24C1107.52 1756.28 1106.5 1756.13 1105.62 1755.77C1104.75 1755.42 1104.07 1754.86 1103.59 1754.11C1103.1 1753.36 1102.86 1752.42 1102.87 1751.27V1734.36ZM1123.43 1738.55V1742.18H1112.92V1738.55H1123.43ZM1115.31 1734.36H1120.15V1750.64C1120.15 1751.08 1120.22 1751.43 1120.36 1751.68C1120.49 1751.92 1120.68 1752.09 1120.92 1752.19C1121.17 1752.29 1121.46 1752.34 1121.79 1752.34C1122.01 1752.34 1122.24 1752.32 1122.47 1752.28C1122.7 1752.24 1122.87 1752.2 1122.99 1752.18L1123.75 1755.78C1123.51 1755.86 1123.17 1755.95 1122.73 1756.05C1122.29 1756.15 1121.76 1756.22 1121.13 1756.24C1119.96 1756.28 1118.94 1756.13 1118.06 1755.77C1117.19 1755.42 1116.51 1754.86 1116.03 1754.11C1115.54 1753.36 1115.3 1752.42 1115.31 1751.27V1734.36ZM1134.36 1756.34C1132.56 1756.34 1131.01 1755.98 1129.72 1755.25C1128.43 1754.52 1127.44 1753.48 1126.74 1752.14C1126.04 1750.79 1125.7 1749.19 1125.7 1747.35C1125.7 1745.56 1126.04 1743.98 1126.74 1742.62C1127.44 1741.27 1128.42 1740.21 1129.68 1739.45C1130.96 1738.7 1132.45 1738.32 1134.16 1738.32C1135.31 1738.32 1136.39 1738.5 1137.38 1738.88C1138.38 1739.24 1139.25 1739.79 1139.99 1740.52C1140.74 1741.26 1141.32 1742.18 1141.74 1743.3C1142.16 1744.4 1142.37 1745.7 1142.37 1747.18V1748.51H1127.63V1745.51H1137.81C1137.81 1744.81 1137.66 1744.2 1137.36 1743.66C1137.05 1743.12 1136.63 1742.7 1136.09 1742.4C1135.56 1742.09 1134.95 1741.93 1134.24 1741.93C1133.51 1741.93 1132.86 1742.1 1132.29 1742.44C1131.73 1742.78 1131.29 1743.23 1130.97 1743.8C1130.65 1744.36 1130.49 1744.98 1130.48 1745.67V1748.52C1130.48 1749.39 1130.64 1750.13 1130.96 1750.76C1131.28 1751.39 1131.74 1751.88 1132.33 1752.22C1132.92 1752.56 1133.62 1752.73 1134.43 1752.73C1134.97 1752.73 1135.46 1752.65 1135.91 1752.5C1136.36 1752.35 1136.74 1752.12 1137.06 1751.82C1137.38 1751.52 1137.62 1751.14 1137.79 1750.7L1142.26 1751C1142.04 1752.08 1141.57 1753.02 1140.87 1753.82C1140.17 1754.61 1139.27 1755.23 1138.16 1755.68C1137.06 1756.12 1135.79 1756.34 1134.36 1756.34ZM1145.53 1756V1738.55H1150.22V1741.59H1150.4C1150.72 1740.51 1151.25 1739.69 1152 1739.14C1152.75 1738.58 1153.62 1738.3 1154.59 1738.3C1154.84 1738.3 1155.1 1738.31 1155.38 1738.34C1155.66 1738.37 1155.9 1738.41 1156.12 1738.47V1742.76C1155.89 1742.69 1155.57 1742.63 1155.17 1742.58C1154.77 1742.53 1154.4 1742.5 1154.07 1742.5C1153.36 1742.5 1152.72 1742.66 1152.16 1742.97C1151.61 1743.27 1151.17 1743.69 1150.84 1744.24C1150.53 1744.78 1150.37 1745.41 1150.37 1746.12V1756H1145.53ZM1173.14 1743.52L1168.71 1743.8C1168.63 1743.42 1168.47 1743.08 1168.22 1742.77C1167.97 1742.46 1167.64 1742.22 1167.23 1742.03C1166.83 1741.84 1166.35 1741.75 1165.79 1741.75C1165.04 1741.75 1164.41 1741.91 1163.89 1742.23C1163.38 1742.54 1163.12 1742.95 1163.12 1743.48C1163.12 1743.89 1163.29 1744.25 1163.62 1744.53C1163.95 1744.82 1164.52 1745.05 1165.34 1745.23L1168.49 1745.86C1170.19 1746.21 1171.46 1746.77 1172.29 1747.55C1173.12 1748.32 1173.54 1749.33 1173.54 1750.59C1173.54 1751.73 1173.2 1752.74 1172.53 1753.6C1171.86 1754.47 1170.95 1755.14 1169.78 1755.62C1168.62 1756.1 1167.28 1756.34 1165.77 1756.34C1163.46 1756.34 1161.62 1755.86 1160.24 1754.9C1158.88 1753.93 1158.08 1752.61 1157.85 1750.94L1162.61 1750.69C1162.75 1751.4 1163.1 1751.94 1163.65 1752.31C1164.21 1752.67 1164.91 1752.85 1165.78 1752.85C1166.63 1752.85 1167.31 1752.69 1167.82 1752.36C1168.35 1752.03 1168.61 1751.6 1168.62 1751.08C1168.61 1750.64 1168.43 1750.28 1168.06 1750C1167.7 1749.71 1167.14 1749.49 1166.38 1749.34L1163.36 1748.74C1161.65 1748.4 1160.38 1747.81 1159.55 1746.97C1158.73 1746.12 1158.31 1745.05 1158.31 1743.75C1158.31 1742.63 1158.62 1741.66 1159.22 1740.85C1159.84 1740.04 1160.7 1739.42 1161.8 1738.98C1162.91 1738.54 1164.22 1738.32 1165.71 1738.32C1167.91 1738.32 1169.65 1738.78 1170.91 1739.72C1172.19 1740.65 1172.93 1741.92 1173.14 1743.52ZM1186.82 1753.3C1186.07 1753.3 1185.43 1753.03 1184.89 1752.5C1184.36 1751.97 1184.1 1751.33 1184.1 1750.57C1184.1 1749.83 1184.36 1749.19 1184.89 1748.66C1185.43 1748.13 1186.07 1747.86 1186.82 1747.86C1187.55 1747.86 1188.19 1748.13 1188.73 1748.66C1189.28 1749.19 1189.55 1749.83 1189.55 1750.57C1189.55 1751.07 1189.42 1751.53 1189.16 1751.94C1188.91 1752.35 1188.59 1752.68 1188.18 1752.93C1187.77 1753.17 1187.32 1753.3 1186.82 1753.3ZM1186.82 1741.88C1186.07 1741.88 1185.43 1741.61 1184.89 1741.08C1184.36 1740.55 1184.1 1739.91 1184.1 1739.15C1184.1 1738.41 1184.36 1737.77 1184.89 1737.25C1185.43 1736.72 1186.07 1736.45 1186.82 1736.45C1187.55 1736.45 1188.19 1736.72 1188.73 1737.25C1189.28 1737.77 1189.55 1738.41 1189.55 1739.15C1189.55 1739.66 1189.42 1740.12 1189.16 1740.53C1188.91 1740.94 1188.59 1741.27 1188.18 1741.51C1187.77 1741.75 1187.32 1741.88 1186.82 1741.88ZM1209.49 1756.32C1207.79 1756.32 1206.28 1756.03 1204.95 1755.44C1203.64 1754.85 1202.59 1754.04 1201.83 1753.01C1201.07 1751.97 1200.68 1750.78 1200.66 1749.42H1205.61C1205.64 1749.99 1205.83 1750.49 1206.17 1750.92C1206.52 1751.34 1206.98 1751.67 1207.56 1751.91C1208.13 1752.14 1208.78 1752.26 1209.5 1752.26C1210.25 1752.26 1210.91 1752.13 1211.49 1751.86C1212.06 1751.6 1212.52 1751.23 1212.84 1750.76C1213.17 1750.29 1213.33 1749.75 1213.33 1749.14C1213.33 1748.52 1213.16 1747.97 1212.81 1747.49C1212.47 1747 1211.97 1746.62 1211.33 1746.35C1210.69 1746.08 1209.94 1745.94 1209.06 1745.94H1206.89V1742.33H1209.06C1209.8 1742.33 1210.45 1742.2 1211.02 1741.94C1211.6 1741.69 1212.05 1741.33 1212.36 1740.88C1212.68 1740.41 1212.84 1739.88 1212.84 1739.26C1212.84 1738.68 1212.7 1738.17 1212.42 1737.73C1212.15 1737.28 1211.76 1736.93 1211.26 1736.68C1210.77 1736.43 1210.19 1736.31 1209.53 1736.31C1208.87 1736.31 1208.26 1736.43 1207.7 1736.67C1207.15 1736.91 1206.71 1737.24 1206.38 1737.68C1206.04 1738.12 1205.86 1738.64 1205.84 1739.23H1201.12C1201.15 1737.89 1201.53 1736.7 1202.27 1735.68C1203.02 1734.66 1204.02 1733.86 1205.27 1733.28C1206.54 1732.7 1207.97 1732.41 1209.56 1732.41C1211.16 1732.41 1212.57 1732.7 1213.77 1733.28C1214.98 1733.87 1215.91 1734.66 1216.58 1735.65C1217.25 1736.63 1217.59 1737.74 1217.58 1738.97C1217.59 1740.27 1217.18 1741.36 1216.36 1742.23C1215.55 1743.1 1214.5 1743.65 1213.19 1743.89V1744.07C1214.91 1744.29 1216.21 1744.88 1217.1 1745.85C1218 1746.81 1218.45 1748.02 1218.44 1749.47C1218.45 1750.79 1218.07 1751.97 1217.3 1753C1216.53 1754.03 1215.47 1754.84 1214.12 1755.43C1212.78 1756.02 1211.23 1756.32 1209.49 1756.32ZM1238.72 1738.55V1742.18H1228.2V1738.55H1238.72ZM1230.59 1734.36H1235.43V1750.64C1235.43 1751.08 1235.5 1751.43 1235.64 1751.68C1235.77 1751.92 1235.96 1752.09 1236.2 1752.19C1236.45 1752.29 1236.74 1752.34 1237.07 1752.34C1237.3 1752.34 1237.52 1752.32 1237.75 1752.28C1237.98 1752.24 1238.15 1752.2 1238.27 1752.18L1239.03 1755.78C1238.79 1755.86 1238.45 1755.95 1238.01 1756.05C1237.57 1756.15 1237.04 1756.22 1236.41 1756.24C1235.24 1756.28 1234.22 1756.13 1233.34 1755.77C1232.47 1755.42 1231.79 1754.86 1231.31 1754.11C1230.82 1753.36 1230.58 1752.42 1230.59 1751.27V1734.36ZM1241.87 1756V1738.55H1246.56V1741.59H1246.74C1247.06 1740.51 1247.6 1739.69 1248.35 1739.14C1249.1 1738.58 1249.96 1738.3 1250.94 1738.3C1251.18 1738.3 1251.44 1738.31 1251.72 1738.34C1252 1738.37 1252.25 1738.41 1252.46 1738.47V1742.76C1252.23 1742.69 1251.92 1742.63 1251.52 1742.58C1251.12 1742.53 1250.75 1742.5 1250.41 1742.5C1249.7 1742.5 1249.07 1742.66 1248.51 1742.97C1247.95 1743.27 1247.51 1743.69 1247.19 1744.24C1246.87 1744.78 1246.71 1745.41 1246.71 1746.12V1756H1241.87ZM1254.96 1756V1738.55H1259.8V1756H1254.96ZM1257.39 1736.3C1256.68 1736.3 1256.06 1736.06 1255.54 1735.58C1255.04 1735.09 1254.78 1734.52 1254.78 1733.84C1254.78 1733.17 1255.04 1732.6 1255.54 1732.12C1256.06 1731.64 1256.68 1731.4 1257.39 1731.4C1258.11 1731.4 1258.73 1731.64 1259.24 1732.12C1259.75 1732.6 1260.01 1733.17 1260.01 1733.84C1260.01 1734.52 1259.75 1735.09 1259.24 1735.58C1258.73 1736.06 1258.11 1736.3 1257.39 1736.3ZM1268.66 1756.33C1267.55 1756.33 1266.55 1756.14 1265.68 1755.75C1264.81 1755.36 1264.12 1754.78 1263.61 1754.01C1263.11 1753.24 1262.86 1752.28 1262.86 1751.12C1262.86 1750.16 1263.04 1749.34 1263.4 1748.68C1263.75 1748.02 1264.24 1747.49 1264.85 1747.09C1265.47 1746.69 1266.16 1746.39 1266.94 1746.18C1267.73 1745.98 1268.56 1745.83 1269.42 1745.75C1270.44 1745.64 1271.25 1745.55 1271.88 1745.45C1272.5 1745.36 1272.95 1745.21 1273.23 1745.02C1273.51 1744.83 1273.65 1744.55 1273.65 1744.18V1744.11C1273.65 1743.39 1273.42 1742.84 1272.97 1742.44C1272.52 1742.05 1271.88 1741.85 1271.06 1741.85C1270.19 1741.85 1269.49 1742.05 1268.98 1742.43C1268.46 1742.81 1268.12 1743.29 1267.95 1743.86L1263.48 1743.5C1263.7 1742.44 1264.15 1741.52 1264.82 1740.75C1265.48 1739.97 1266.34 1739.37 1267.4 1738.95C1268.46 1738.53 1269.69 1738.32 1271.08 1738.32C1272.05 1738.32 1272.98 1738.43 1273.86 1738.66C1274.76 1738.89 1275.55 1739.24 1276.24 1739.72C1276.94 1740.19 1277.48 1740.81 1277.89 1741.56C1278.29 1742.3 1278.49 1743.19 1278.49 1744.23V1756H1273.9V1753.58H1273.76C1273.48 1754.12 1273.11 1754.61 1272.64 1755.02C1272.17 1755.43 1271.6 1755.75 1270.94 1755.99C1270.28 1756.22 1269.52 1756.33 1268.66 1756.33ZM1270.05 1752.99C1270.76 1752.99 1271.39 1752.85 1271.93 1752.57C1272.48 1752.28 1272.91 1751.89 1273.22 1751.41C1273.53 1750.92 1273.68 1750.37 1273.68 1749.76V1747.91C1273.53 1748.01 1273.32 1748.1 1273.06 1748.18C1272.8 1748.26 1272.51 1748.33 1272.18 1748.4C1271.86 1748.46 1271.53 1748.52 1271.2 1748.57C1270.88 1748.61 1270.58 1748.66 1270.32 1748.69C1269.75 1748.78 1269.25 1748.91 1268.83 1749.09C1268.41 1749.27 1268.08 1749.52 1267.84 1749.83C1267.61 1750.13 1267.49 1750.51 1267.49 1750.97C1267.49 1751.62 1267.73 1752.13 1268.2 1752.48C1268.69 1752.82 1269.3 1752.99 1270.05 1752.99ZM1287.09 1745.91V1756H1282.24V1738.55H1286.86V1741.62H1287.06C1287.45 1740.61 1288.1 1739.81 1289.01 1739.22C1289.91 1738.62 1291.02 1738.32 1292.31 1738.32C1293.52 1738.32 1294.58 1738.58 1295.48 1739.11C1296.38 1739.64 1297.09 1740.4 1297.59 1741.39C1298.09 1742.36 1298.34 1743.53 1298.34 1744.89V1756H1293.49V1745.75C1293.5 1744.68 1293.23 1743.85 1292.68 1743.25C1292.12 1742.64 1291.36 1742.34 1290.39 1742.34C1289.74 1742.34 1289.16 1742.48 1288.66 1742.76C1288.17 1743.04 1287.79 1743.45 1287.51 1743.99C1287.23 1744.52 1287.09 1745.16 1287.09 1745.91ZM1310.01 1762.91C1308.45 1762.91 1307.1 1762.69 1305.98 1762.26C1304.87 1761.84 1303.98 1761.26 1303.32 1760.52C1302.66 1759.79 1302.23 1758.96 1302.04 1758.05L1306.51 1757.44C1306.65 1757.79 1306.87 1758.12 1307.16 1758.42C1307.46 1758.72 1307.85 1758.97 1308.33 1759.15C1308.82 1759.34 1309.42 1759.43 1310.13 1759.43C1311.18 1759.43 1312.05 1759.17 1312.73 1758.66C1313.42 1758.15 1313.76 1757.3 1313.76 1756.1V1752.91H1313.56C1313.35 1753.39 1313.03 1753.85 1312.61 1754.28C1312.18 1754.72 1311.64 1755.07 1310.97 1755.34C1310.3 1755.61 1309.51 1755.75 1308.58 1755.75C1307.27 1755.75 1306.08 1755.45 1305 1754.84C1303.93 1754.23 1303.08 1753.29 1302.45 1752.03C1301.82 1750.77 1301.5 1749.17 1301.5 1747.24C1301.5 1745.26 1301.82 1743.61 1302.47 1742.28C1303.11 1740.96 1303.97 1739.97 1305.04 1739.31C1306.11 1738.65 1307.29 1738.32 1308.57 1738.32C1309.55 1738.32 1310.37 1738.48 1311.03 1738.82C1311.68 1739.14 1312.21 1739.55 1312.62 1740.05C1313.03 1740.53 1313.34 1741.01 1313.56 1741.48H1313.74V1738.55H1318.55V1756.17C1318.55 1757.66 1318.18 1758.9 1317.46 1759.9C1316.73 1760.9 1315.72 1761.65 1314.43 1762.15C1313.15 1762.66 1311.68 1762.91 1310.01 1762.91ZM1310.12 1752.11C1310.9 1752.11 1311.56 1751.92 1312.09 1751.53C1312.64 1751.14 1313.06 1750.58 1313.34 1749.85C1313.64 1749.12 1313.79 1748.24 1313.79 1747.22C1313.79 1746.19 1313.64 1745.31 1313.36 1744.56C1313.07 1743.8 1312.65 1743.21 1312.11 1742.8C1311.56 1742.38 1310.9 1742.17 1310.12 1742.17C1309.32 1742.17 1308.65 1742.39 1308.11 1742.82C1307.56 1743.24 1307.15 1743.83 1306.87 1744.59C1306.59 1745.35 1306.45 1746.22 1306.45 1747.22C1306.45 1748.22 1306.59 1749.09 1306.87 1749.83C1307.15 1750.56 1307.57 1751.12 1308.11 1751.52C1308.65 1751.92 1309.32 1752.11 1310.12 1752.11ZM1327.24 1732.73V1756H1322.4V1732.73H1327.24ZM1339.07 1756.34C1337.28 1756.34 1335.73 1755.98 1334.44 1755.25C1333.15 1754.52 1332.16 1753.48 1331.46 1752.14C1330.76 1750.79 1330.41 1749.19 1330.41 1747.35C1330.41 1745.56 1330.76 1743.98 1331.46 1742.62C1332.16 1741.27 1333.14 1740.21 1334.4 1739.45C1335.68 1738.7 1337.17 1738.32 1338.88 1738.32C1340.03 1738.32 1341.1 1738.5 1342.1 1738.88C1343.1 1739.24 1343.97 1739.79 1344.71 1740.52C1345.46 1741.26 1346.04 1742.18 1346.46 1743.3C1346.88 1744.4 1347.09 1745.7 1347.09 1747.18V1748.51H1332.35V1745.51H1342.53C1342.53 1744.81 1342.38 1744.2 1342.07 1743.66C1341.77 1743.12 1341.35 1742.7 1340.81 1742.4C1340.28 1742.09 1339.66 1741.93 1338.96 1741.93C1338.23 1741.93 1337.57 1742.1 1337.01 1742.44C1336.45 1742.78 1336.01 1743.23 1335.69 1743.8C1335.37 1744.36 1335.21 1744.98 1335.2 1745.67V1748.52C1335.2 1749.39 1335.36 1750.13 1335.68 1750.76C1336 1751.39 1336.46 1751.88 1337.05 1752.22C1337.64 1752.56 1338.34 1752.73 1339.15 1752.73C1339.69 1752.73 1340.18 1752.65 1340.63 1752.5C1341.08 1752.35 1341.46 1752.12 1341.78 1751.82C1342.1 1751.52 1342.34 1751.14 1342.51 1750.7L1346.98 1751C1346.76 1752.08 1346.29 1753.02 1345.59 1753.82C1344.89 1754.61 1343.99 1755.23 1342.88 1755.68C1341.78 1756.12 1340.51 1756.34 1339.07 1756.34ZM1364.77 1743.52L1360.34 1743.8C1360.26 1743.42 1360.1 1743.08 1359.85 1742.77C1359.6 1742.46 1359.27 1742.22 1358.86 1742.03C1358.46 1741.84 1357.98 1741.75 1357.41 1741.75C1356.66 1741.75 1356.03 1741.91 1355.52 1742.23C1355 1742.54 1354.74 1742.95 1354.74 1743.48C1354.74 1743.89 1354.91 1744.25 1355.24 1744.53C1355.58 1744.82 1356.15 1745.05 1356.96 1745.23L1360.12 1745.86C1361.82 1746.21 1363.08 1746.77 1363.91 1747.55C1364.75 1748.32 1365.16 1749.33 1365.16 1750.59C1365.16 1751.73 1364.83 1752.74 1364.15 1753.6C1363.49 1754.47 1362.57 1755.14 1361.4 1755.62C1360.24 1756.1 1358.91 1756.34 1357.39 1756.34C1355.08 1756.34 1353.24 1755.86 1351.87 1754.9C1350.51 1753.93 1349.71 1752.61 1349.47 1750.94L1354.23 1750.69C1354.38 1751.4 1354.73 1751.94 1355.28 1752.31C1355.83 1752.67 1356.54 1752.85 1357.4 1752.85C1358.25 1752.85 1358.93 1752.69 1359.45 1752.36C1359.97 1752.03 1360.24 1751.6 1360.24 1751.08C1360.24 1750.64 1360.05 1750.28 1359.69 1750C1359.32 1749.71 1358.76 1749.49 1358.01 1749.34L1354.98 1748.74C1353.28 1748.4 1352.01 1747.81 1351.18 1746.97C1350.35 1746.12 1349.94 1745.05 1349.94 1743.75C1349.94 1742.63 1350.24 1741.66 1350.85 1740.85C1351.46 1740.04 1352.32 1739.42 1353.43 1738.98C1354.54 1738.54 1355.84 1738.32 1357.34 1738.32C1359.54 1738.32 1361.27 1738.78 1362.54 1739.72C1363.81 1740.65 1364.55 1741.92 1364.77 1743.52Z" fill="white"/>
<rect x="1000" y="1690" width="1000" height="5" fill="white"/>
</svg>
