<svg width="36" height="36" viewBox="0 0 36 36" fill="none" xmlns="http://www.w3.org/2000/svg">
<path d="M18 0L33.5885 27H2.41154L18 0Z" fill="white"/>
<mask id="mask0_2_20" style="mask-type:alpha" maskUnits="userSpaceOnUse" x="2" y="0" width="32" height="27">
<path d="M18 0L33.5885 27H2.41154L18 0Z" fill="white"/>
</mask>
<g mask="url(#mask0_2_20)">
<path d="M4.61542 15C4.61542 15 14.0205 13.5044 19.7308 15C25.7269 16.5705 33.4616 22.9616 33.4616 22.9616" stroke="#6FCF97" stroke-width="1.3"/>
<path d="M10.0385 2.76923C10.0385 2.76923 15.0589 9.78448 20.7693 11.2801C26.7654 12.8506 34.5 19.2416 34.5 19.2416" stroke="#27AE60" stroke-width="1.3"/>
<path d="M-8.30765 -3.9231C-8.30765 -3.9231 0.194328 -0.878206 2.42312 4.58778C4.26927 9.11537 17.3077 12.3461 17.3077 12.3461" stroke="black" stroke-width="1.3" stroke-linecap="round"/>
<path d="M22.2692 23.0769C22.2692 23.0769 30.7712 26.1218 33 31.5878C34.8461 36.1154 47.8846 39.3461 47.8846 39.3461" stroke="black" stroke-width="1.3" stroke-linecap="round"/>
<path d="M6.5769 17.423C6.5769 17.423 14.2072 16.2032 19.3846 19.0384C24.562 21.8737 32.1923 23.0769 32.1923 23.0769" stroke="#2F80ED" stroke-width="1.3" stroke-linecap="round"/>
<path d="M-6.23077 17.4532C-6.23077 17.4532 1.39948 16.2334 6.57692 19.0686C11.7544 21.9039 19.3846 23.1071 19.3846 23.1071" stroke="#27AE60" stroke-width="1.3" stroke-linecap="round"/>
</g>
</svg>
